<svg width="173" height="334" viewBox="0 0 173 334" fill="none" xmlns="http://www.w3.org/2000/svg">
<path d="M118.084 264.065C117.672 263.426 115.188 261.105 113.998 260.024C112.367 256.883 108.784 249.888 107.498 247.034C106.211 244.18 103.882 239.078 102.878 236.884L97.4549 240.766C99.0138 243.722 102.745 250.369 105.201 253.307C108.34 256.921 109.996 259.159 113.145 263.415C113.267 263.855 113.544 264.801 113.667 265.22C113.778 265.858 114.647 266.868 115.067 267.293C115.018 267.204 115.072 267.241 115.686 268.1C116.3 268.959 116.518 268.856 116.551 268.697C116.621 268.484 116.649 267.921 116.194 267.374C115.74 266.826 115.964 266.657 116.132 266.641C116.187 266.62 116.388 266.658 116.757 266.973C117.126 267.288 117.632 267.852 117.839 268.095C118.489 268.745 118.861 268.42 118.966 268.176C119.108 267.87 119.385 267.07 119.358 266.312C119.332 265.553 118.497 264.498 118.084 264.065Z" fill="#FFC807"/>
<path d="M85.0542 202.014C84.8286 194.708 84.4271 187.682 85.0542 181.529C86.9734 179.907 86.3531 178.542 85.1727 178.097C85.0051 176.022 83.8437 175.941 82.3627 177.006C80.7445 178.169 81.3853 179.651 81.7229 182.522L80.4528 208.558L80.4528 224.134C82.808 222.247 87.5746 218.474 87.7994 218.474C87.0607 215.358 86.0195 210.913 85.5913 209.08C85.3344 207.667 85.1262 203.78 85.0542 202.014Z" fill="#FFC807"/>
<path d="M82.7606 181.015C82.6907 181.546 82.6013 182.512 82.9559 182.973C83.222 183.32 83.4488 183.779 83.4927 183.999" stroke="#DADADB" stroke-width="0.5"/>
<path d="M82.7604 181.016C82.5446 181.506 82.1882 182.408 82.3993 182.95C82.5577 183.358 82.6466 183.862 82.6271 184.086" stroke="#DADADB" stroke-width="0.5"/>
<path d="M82.7556 180.987C82.6391 181.51 82.3915 182.448 81.9 182.76C81.5312 182.994 81.1604 183.348 81.0437 183.539" stroke="#DADADB" stroke-width="0.5"/>
<path d="M82.9037 181.02C82.7872 181.542 82.7315 182.048 82.3038 182.558C82.023 182.892 81.7365 183.527 81.6278 183.979" stroke="#DADADB" stroke-width="0.5"/>
<path d="M83.0582 181.047C82.9408 181.57 82.7756 182.051 82.9452 182.694C83.0565 183.117 83.0452 183.813 82.9505 184.268" stroke="#DADADB" stroke-width="0.5"/>
<path d="M100.575 258.313C98.9791 252.589 96.3971 249.403 94.8983 246.613L76.6862 246.163C75.1869 290.734 79.5021 312.421 81.7662 319.224C79.8003 322.972 79.9211 323.242 79.5493 324.254C78.8697 327.849 81.2975 326.177 82.1936 325.444C85.4762 321.822 84.8373 321.842 86.0424 319.693C86.1536 304.907 87.7965 282.259 89.2479 272.864C89.554 273.535 90.5656 275.971 92.1636 280.342C93.7616 284.714 96.8499 288.702 97.7717 289.742C103.246 295.9 113.611 308.08 114.658 310.789C115.704 313.498 115.624 314.979 115.898 316.583C116.716 318.209 118.104 316.218 118.423 315.485C119.685 310.182 118.704 309.564 118.336 306.884C117.154 305.345 115.966 304.335 115.428 302.709C110.964 289.222 105.762 283.274 103.931 278.584C102.506 274.142 101.435 261.398 100.575 258.313Z" fill="#1F9DD8"/>
<path d="M87.7751 213.863C88.2811 214.748 88.2319 216.27 88.144 216.92C85.3241 218.659 79.5684 221.806 79.1045 220.478C78.6407 219.149 78.8059 217.552 78.9464 216.92C78.9991 216.656 79.1045 215.976 79.1045 215.365C79.1045 214.753 78.718 213.195 78.5247 212.492C82.0035 212.745 86.1411 211.262 87.7751 210.489C87.898 210.858 88.0702 211.744 87.7751 212.334C87.4799 212.924 87.6521 213.599 87.7751 213.863Z" fill="#F3F3F5"/>
<path d="M87.8524 215.469C88.6663 214.845 90.9378 212.334 91.9717 211.157C94.3416 208.458 95.4077 209.825 95.9611 211.02C96.8168 212.399 98.245 215.165 97.1115 215.194C95.978 215.222 95.5055 216.293 95.2352 216.811C94.6453 217.94 96.0219 219.468 96.6184 220.195L94.0672 222.424L84.0819 221.269C84.4269 220.194 87.0384 216.093 87.8524 215.469Z" fill="#FFC807"/>
<path d="M96.4241 202.57C94.9773 203.262 94.9737 204.685 95.1527 205.31L102.753 201.674C102.657 201.349 102.23 200.656 101.283 200.485C100.336 200.313 99.5411 200.778 99.262 201.031C99.2046 200.849 98.8024 200.561 97.6531 200.87C96.5039 201.18 96.3549 202.132 96.4241 202.57Z" fill="#454545"/>
<path fill-rule="evenodd" clip-rule="evenodd" d="M96.3223 203.826C96.7444 203.494 99.6376 203.066 100.198 203.524C100.677 203.915 103.046 204.959 103.953 206.28C104.861 207.601 106.118 209.961 103.973 212.884C103.252 213.865 101.312 215.532 100.234 215.771C98.5832 216.138 96.4722 215.428 93.0183 215.792C92.1586 213.396 88.8184 209.084 88.9538 207.954C89.0893 206.823 91.347 206.099 91.991 205.836C92.635 205.573 92.1736 204.81 92.5956 204.478C93.0177 204.146 94.6342 205.153 96.3223 203.826Z" fill="#FFC807"/>
<path d="M98.7838 204.093C98.1082 202.978 98.3548 202.223 98.5626 201.985C99.9951 199.563 101.876 200.078 102.638 200.638C102.923 200.226 103.785 200.267 104.18 200.339C104.593 200.4 105.58 200.709 106.228 201.452C106.875 202.196 106.589 203.152 106.364 203.537C106.614 203.659 107.319 204.125 108.134 205.006C108.949 205.887 109.238 207.177 109.28 207.712C109.601 208.892 108.241 210.334 107.521 210.907C108.027 211.557 108.105 212.646 108.081 213.109C108.271 213.98 107.069 214.731 106.445 214.997C106.566 215.197 106.532 215.931 105.423 217.26C104.314 218.59 103.259 218.297 102.87 217.984C101.455 218.901 99.4346 217.774 98.6013 217.095C98.3936 217.507 97.7604 218.135 96.8892 217.348C96.018 216.56 95.4218 215.276 95.5977 214.908C95.4732 214.314 96.5404 213.232 97.5963 213.519L98.6961 213.824C99.4705 214.039 99.9101 213.395 100.097 213.122L100.1 213.118C100.285 212.846 100.216 212.231 99.7402 211.772C99.2649 211.313 98.0597 211.108 97.5166 211.064C97.3779 210.699 97.1676 209.93 97.4353 209.768C97.703 209.606 98.7509 209.868 99.2414 210.019C98.2407 209.25 99.4739 208.408 100.216 208.084C99.7907 207.731 98.8628 206.803 98.5507 205.916C98.2385 205.029 98.576 204.331 98.7838 204.093Z" fill="#454545"/>
<path d="M90.8704 220.6C86.6432 220.89 85.8089 218.718 86.9562 216.666C87.3975 215.877 88.3564 215.057 88.6074 214.758C86.6804 214.557 81.9123 214.964 80.0163 218.975C75.4798 228.569 75.4426 238.908 76.421 249.447C83.6014 252.767 91.1882 249.446 95.7079 247.707C95.2663 244.375 96.317 242.092 97.3948 241.466C97.5619 242.179 97.9762 243.748 98.2974 244.326L105.082 241.034C104.745 239.474 104.07 235.977 104.07 234.478C103.849 231.718 102.965 228.42 102.513 227.444C100.427 222.938 97.7738 220.574 95.7079 218.975C93.7888 220.31 92.0579 220.519 90.8704 220.6Z" fill="#F3F3F5"/>
<path fill-rule="evenodd" clip-rule="evenodd" d="M80.155 228.981L79.5024 229.804C79.4766 229.838 79.4444 229.866 79.4078 229.888C79.3712 229.909 79.3309 229.923 79.289 229.929C79.2472 229.935 79.2047 229.932 79.1641 229.921C79.1234 229.911 79.0853 229.892 79.052 229.866L77.3441 228.487C77.3119 228.46 77.2854 228.426 77.266 228.389C77.2467 228.351 77.2349 228.31 77.2314 228.267C77.2279 228.225 77.2326 228.182 77.2454 228.141C77.2583 228.101 77.2789 228.063 77.3061 228.03L77.9587 227.208C78.0109 227.139 78.0877 227.094 78.1722 227.082C78.2567 227.07 78.3421 227.093 78.4095 227.145L80.1173 228.524C80.1823 228.579 80.2228 228.658 80.2299 228.744C80.237 228.829 80.21 228.915 80.155 228.981Z" fill="#1F9DD8"/>
<path fill-rule="evenodd" clip-rule="evenodd" d="M82.671 227.689L81.6684 227.971C81.6279 227.983 81.5855 227.988 81.5436 227.983C81.5016 227.979 81.461 227.967 81.424 227.947C81.3871 227.926 81.3544 227.899 81.328 227.866C81.3017 227.833 81.282 227.795 81.2702 227.754L80.7001 225.616C80.69 225.575 80.6881 225.532 80.6944 225.49C80.7008 225.448 80.7153 225.407 80.7371 225.37C80.759 225.334 80.7877 225.302 80.8217 225.276C80.8557 225.25 80.8943 225.232 80.9352 225.221L81.9378 224.939C82.0196 224.914 82.1076 224.923 82.1823 224.964C82.2571 225.004 82.3126 225.073 82.3365 225.156L82.9067 227.294C82.9269 227.377 82.9135 227.466 82.8693 227.54C82.8251 227.614 82.7537 227.668 82.671 227.689Z" fill="#78B942"/>
<path fill-rule="evenodd" clip-rule="evenodd" d="M85.4437 228.132L84.4742 227.766C84.4345 227.752 84.398 227.73 84.3668 227.701C84.3355 227.673 84.3102 227.639 84.2922 227.6C84.2741 227.562 84.2638 227.52 84.2618 227.478C84.2597 227.435 84.266 227.393 84.2803 227.352L85.0656 225.272C85.0815 225.232 85.105 225.196 85.1346 225.165C85.1642 225.135 85.1995 225.11 85.2384 225.094C85.2772 225.077 85.319 225.068 85.3611 225.067C85.4033 225.066 85.4451 225.074 85.4842 225.09L86.4537 225.456C86.5339 225.484 86.5995 225.544 86.6359 225.621C86.6724 225.699 86.6768 225.788 86.6481 225.869L85.8628 227.95C85.8305 228.03 85.7683 228.094 85.6897 228.128C85.6111 228.162 85.5226 228.163 85.4437 228.132Z" fill="#FFC807"/>
<path fill-rule="evenodd" clip-rule="evenodd" d="M87.414 230.139L86.8479 229.265C86.8241 229.23 86.8075 229.191 86.7989 229.149C86.7902 229.107 86.7899 229.064 86.7977 229.022C86.8055 228.98 86.8215 228.94 86.8446 228.904C86.8676 228.868 86.8975 228.838 86.9323 228.813L88.7732 227.585C88.809 227.562 88.8488 227.547 88.8904 227.539C88.932 227.532 88.9746 227.533 89.0156 227.542C89.0567 227.552 89.0954 227.569 89.1297 227.594C89.1639 227.618 89.193 227.649 89.2153 227.685L89.7814 228.56C89.8294 228.63 89.8475 228.718 89.8317 228.803C89.8159 228.887 89.7676 228.963 89.6973 229.012L87.8564 230.24C87.784 230.286 87.6967 230.301 87.6137 230.282C87.5308 230.263 87.4589 230.212 87.414 230.139Z" fill="#FFC807"/>
<path fill-rule="evenodd" clip-rule="evenodd" d="M87.8294 232.946L87.8829 231.897C87.8842 231.854 87.8937 231.812 87.911 231.773C87.9283 231.734 87.9531 231.699 87.9837 231.669C88.0144 231.64 88.0505 231.617 88.0899 231.601C88.1294 231.586 88.1713 231.578 88.2134 231.579L90.4067 231.672C90.4487 231.675 90.4897 231.686 90.5274 231.705C90.5651 231.724 90.5986 231.75 90.6262 231.782C90.6538 231.814 90.6748 231.851 90.688 231.891C90.7013 231.932 90.7065 231.974 90.7034 232.017L90.6499 233.066C90.6474 233.152 90.6111 233.234 90.5491 233.293C90.4871 233.353 90.4045 233.386 90.3194 233.384L88.1261 233.291C88.0412 233.285 87.9622 233.246 87.9066 233.181C87.851 233.116 87.8232 233.032 87.8294 232.946Z" fill="#EC1C66"/>
<path fill-rule="evenodd" clip-rule="evenodd" d="M82.0131 229.114C82.1225 229.075 82.2418 229.132 82.2797 229.243L83.3258 232.284L85.1192 231.247C85.22 231.189 85.3478 231.224 85.4045 231.326C85.4613 231.427 85.4255 231.556 85.3246 231.615L83.3126 232.778C83.2585 232.809 83.1936 232.814 83.1356 232.793C83.0775 232.771 83.0322 232.724 83.0119 232.665L81.8837 229.385C81.8458 229.275 81.9037 229.154 82.0131 229.114Z" fill="#424242"/>
<path d="M45.1697 132.378L85.0661 178.191" stroke="#DADADB" stroke-width="0.5"/>
<path d="M44.0526 111.863L85.5375 177.985" stroke="#DADADB" stroke-width="0.5"/>
<path d="M74.1246 136.138L84.6317 176.898" stroke="#DADADB" stroke-width="0.5"/>
<path d="M89.523 115.123L85.3564 176.354" stroke="#DADADB" stroke-width="0.5"/>
<path d="M84.2693 101.899L85.7185 176.535" stroke="#DADADB" stroke-width="0.5"/>
<path d="M75.5739 64.5808L85.5375 178.528" stroke="#DADADB" stroke-width="0.5"/>
<path d="M96.7693 89.3992L85.3564 178.347" stroke="#DADADB" stroke-width="0.5"/>
<path d="M98.0374 115.848L86.2623 176.898" stroke="#DADADB" stroke-width="0.5"/>
<path d="M119.051 124.181L85.6811 178.256" stroke="#DADADB" stroke-width="0.5"/>
<path d="M125.754 108.421L86.6244 176.173" stroke="#DADADB" stroke-width="0.5"/>
<path d="M120.138 71.827L85.5516 178.321" stroke="#DADADB" stroke-width="0.5"/>
<path d="M128.653 97.551L85.5374 176.898" stroke="#DADADB" stroke-width="0.5"/>
<path d="M33.75 49.083L85.175 178.347" stroke="#DADADB" stroke-width="0.5"/>
<path d="M77.1041 57.8589C76.4538 57.2783 76.2821 56.8225 76.2775 56.6672L75.3366 56.6268C75.3272 57.2911 75.1318 57.7419 75.0353 57.8843C74.9431 58.014 74.6775 58.2722 74.3525 58.267C74.0275 58.2617 73.8626 58.3158 73.8208 58.3435C73.4881 58.4617 73.3664 58.8218 73.3471 58.9871C73.2775 59.297 73.5647 59.5484 73.7169 59.6354C73.8721 59.6668 74.236 59.6998 74.4505 59.5806C74.665 59.4614 74.9075 59.3724 75.0018 59.3429C75.2306 59.3012 75.8011 59.2636 76.2531 59.4461C76.7051 59.6286 77.2373 59.643 77.4469 59.6274C78.2867 59.5843 78.4754 59.1001 78.4648 58.8633C78.4277 58.7432 78.2623 58.4655 77.897 58.3158C77.5317 58.1661 77.2162 57.9488 77.1041 57.8589Z" fill="#CCEFFF"/>
<path d="M56.1487 6.93568C62.219 1.63323 69.996 1.72343 73.051 2.04652C76.1061 2.36963 88.3228 6.69327 91.2346 17.4057C93.5641 25.9756 90.9864 31.4205 90.088 33.4266C89.3007 35.1845 87.9435 36.691 85.6533 40.4622C83.363 44.2335 82.3769 47.8401 82.1701 49.172C81.8138 51.3723 80.1143 56.1994 76.9222 57.0032C73.6046 57.8386 72.1248 57.0201 71.0794 56.2452C70.3664 55.7167 68.0791 53.4565 66.6788 51.4302C65.2785 49.4038 64.0748 47.92 63.3696 47.0848C62.4702 46.0196 60.6101 44.3377 58.3433 42.5001C55.8015 40.4396 53.0378 37.6608 51.9545 36.2721C48.4013 31.9816 47.7737 25.9911 47.8355 23.5373C47.9287 19.8383 50.0784 12.2381 56.1487 6.93568Z" fill="#CCEFFF"/>
<path d="M143.43 105.58C144.066 104.984 144.227 104.525 144.227 104.369L145.167 104.306C145.193 104.97 145.399 105.416 145.499 105.556C145.594 105.683 145.866 105.935 146.19 105.922C146.515 105.909 146.681 105.959 146.724 105.986C147.059 106.096 147.19 106.453 147.213 106.618C147.29 106.926 147.009 107.184 146.859 107.275C146.704 107.31 146.341 107.352 146.124 107.238C145.907 107.124 145.662 107.041 145.567 107.013C145.338 106.977 144.766 106.953 144.319 107.147C143.871 107.34 143.34 107.367 143.13 107.357C142.289 107.334 142.089 106.854 142.094 106.617C142.128 106.496 142.287 106.215 142.648 106.056C143.01 105.898 143.32 105.673 143.43 105.58Z" fill="#FFEFB5"/>
<path d="M163.151 54.1671C156.955 49.0126 149.182 49.2903 146.136 49.6869C143.089 50.0836 130.98 54.7006 128.328 65.4801C126.206 74.1038 128.914 79.4849 129.861 81.4687C130.69 83.2071 132.083 84.6804 134.464 88.3954C136.844 92.1103 137.917 95.6921 138.156 97.0186C138.565 99.2097 140.38 103.994 143.591 104.721C146.928 105.476 148.387 104.622 149.414 103.822C150.114 103.277 152.346 100.962 153.697 98.9025C155.048 96.843 156.216 95.3306 156.9 94.4786C157.774 93.3921 159.593 91.6658 161.815 89.7741C164.306 87.6529 167.002 84.8082 168.052 83.3938C171.5 79.0189 171.983 73.015 171.862 70.5634C171.68 66.8677 169.347 59.3216 163.151 54.1671Z" fill="#FFEFB5"/>
<path d="M36.0382 57.9968C36.3541 57.2529 36.318 56.8028 36.2604 56.6708L37.0335 56.265C37.304 56.8183 37.646 57.1191 37.7832 57.2004C37.9118 57.2727 38.2366 57.3843 38.507 57.2515C38.7775 57.1186 38.9371 57.0988 38.9832 57.1055C39.3088 57.0732 39.5532 57.327 39.6347 57.458C39.8156 57.6904 39.6741 58.0147 39.5808 58.1478C39.4631 58.2354 39.171 58.407 38.944 58.3918C38.717 58.3766 38.4786 58.3978 38.3877 58.4103C38.1794 58.4658 37.6862 58.6597 37.3793 58.9914C37.0723 59.3232 36.6317 59.5455 36.4498 59.6153C35.7285 59.9111 35.3789 59.5796 35.2942 59.3768C35.2778 59.2614 35.3068 58.9632 35.554 58.6933C35.8011 58.4234 35.9798 58.1165 36.0382 57.9968Z" fill="#FFEFB5"/>
<path d="M33.4844 7.01128C26.2982 4.96389 19.8122 8.11323 17.378 9.59164C14.9437 11.0701 6.40778 19.5242 8.19986 29.6584C9.63353 37.7657 13.9472 41.3129 15.4934 42.6401C16.8484 43.8031 18.5819 44.53 21.993 46.7874C25.4042 49.0447 27.6565 51.6794 28.3563 52.7146C29.5247 54.4189 32.8578 57.7952 35.8523 57.2076C38.9645 56.5969 39.882 55.3257 40.4525 54.2627C40.8415 53.5377 41.8662 50.7383 42.2396 48.4856C42.613 46.2329 43.036 44.5129 43.2973 43.5337C43.6305 42.285 44.5256 40.1395 45.7003 37.7025C47.0173 34.97 48.2367 31.5474 48.5963 29.9547C49.8802 24.9525 48.0389 19.6808 47.0172 17.6475C45.4771 14.5824 40.6706 9.05866 33.4844 7.01128Z" fill="#FFEFB5"/>
<path d="M56.855 91.7363C57.524 91.043 57.6757 90.5267 57.668 90.3552L58.7015 90.2333C58.7665 90.9645 59.0189 91.4452 59.137 91.5942C59.2492 91.7296 59.5632 91.9923 59.9209 91.9598C60.2785 91.9273 60.4647 91.9733 60.5131 92.0004C60.8894 92.1033 61.0531 92.4901 61.088 92.6707C61.1902 93.0065 60.8944 93.3071 60.7338 93.4154C60.5654 93.4628 60.1671 93.5292 59.9209 93.4154C59.6747 93.3017 59.4002 93.2236 59.2938 93.1988C59.0383 93.1717 58.4065 93.1771 57.9234 93.4154C57.4403 93.6538 56.855 93.7133 56.6228 93.7133C55.6937 93.735 55.446 93.2168 55.4383 92.955C55.4692 92.8196 55.6287 92.5001 56.0189 92.3051C56.4091 92.1101 56.7389 91.8447 56.855 91.7363Z" fill="#ECAFC6"/>
<path d="M75.7601 33.8969C68.6347 28.5528 60.0721 29.2917 56.732 29.899C53.3919 30.5063 40.2849 36.2754 37.957 48.3198C36.0946 57.9552 39.383 63.7434 40.538 65.8802C41.5501 67.7526 43.1695 69.3012 46.0035 73.2687C48.8374 77.2363 50.2207 81.1296 50.558 82.5803C51.1316 84.9757 53.4014 90.1553 56.9851 90.7786C60.7097 91.4263 62.2731 90.4027 63.3615 89.4628C64.1037 88.8218 66.4383 86.143 67.8148 83.7949C69.1913 81.4467 70.3958 79.7126 71.1043 78.7342C72.0078 77.4865 73.9193 75.4801 76.2661 73.2687C78.8977 70.789 81.7147 67.4996 82.7943 65.8802C86.357 60.86 86.5561 54.2069 86.2862 51.5079C85.8793 47.4394 82.8854 39.2409 75.7601 33.8969Z" fill="#ECAFC6"/>
<path d="M91.9042 85.3064C91.4247 84.4708 91.4036 83.933 91.453 83.7686L90.4804 83.3981C90.2389 84.0914 89.8768 84.4959 89.726 84.6116C89.584 84.7155 89.2155 84.8936 88.8765 84.7748C88.5376 84.656 88.3458 84.6552 88.2923 84.6696C87.9023 84.6776 87.6491 85.0127 87.5712 85.1793C87.3902 85.48 87.6036 85.8437 87.7329 85.988C87.8847 86.0751 88.2547 86.2366 88.5212 86.1864C88.7878 86.1362 89.073 86.1275 89.1823 86.1294C89.4366 86.1655 90.0479 86.3249 90.4583 86.674C90.8686 87.023 91.4216 87.2236 91.6469 87.2803C92.5425 87.5281 92.9092 87.0861 92.9806 86.8341C92.9837 86.6952 92.907 86.3464 92.5762 86.062C92.2454 85.7777 91.9904 85.4398 91.9042 85.3064Z" fill="#75C0E4"/>
<path d="M87.6884 24.6022C95.9027 21.159 104.026 23.9655 107.117 25.3696C110.208 26.7738 121.51 35.5676 120.828 47.8159C120.282 57.6145 115.68 62.4249 114.039 64.2152C112.6 65.784 110.652 66.8904 106.935 70.0462C103.218 73.2021 100.927 76.64 100.246 77.9645C99.1047 80.1474 95.6393 84.6164 92.0119 84.3461C88.2418 84.0652 86.9755 82.6909 86.1495 81.5138C85.5861 80.711 83.9759 77.5434 83.2142 74.9303C82.4525 72.3172 81.7078 70.3416 81.2595 69.2198C80.6878 67.7893 79.3239 65.3771 77.5878 62.6597C75.6411 59.6127 73.7121 55.7351 73.0604 53.9012C70.8308 48.1633 72.2616 41.6629 73.1822 39.1114C74.5698 35.2652 79.4742 28.0454 87.6884 24.6022Z" fill="#75C0E4"/>
<path d="M77.7639 98.6957C78.3371 98.1016 78.4671 97.6591 78.4605 97.5121L79.3462 97.4077C79.402 98.0343 79.6183 98.4463 79.7194 98.5739C79.8156 98.6899 80.0847 98.9151 80.3912 98.8872C80.6977 98.8594 80.8573 98.8988 80.8988 98.922C81.2212 99.0102 81.3615 99.3417 81.3914 99.4964C81.479 99.7842 81.2255 100.042 81.0878 100.135C80.9435 100.175 80.6022 100.232 80.3912 100.135C80.1802 100.037 79.945 99.9703 79.8538 99.949C79.6348 99.9258 79.0935 99.9305 78.6795 100.135C78.2654 100.339 77.7639 100.39 77.5648 100.39C76.7687 100.409 76.5563 99.9645 76.5497 99.7401C76.5763 99.6241 76.7129 99.3502 77.0473 99.1831C77.3817 99.016 77.6643 98.7886 77.7639 98.6957Z" fill="#FFC807"/>
<path d="M93.965 49.128C87.8587 44.5482 80.5208 45.1814 77.6584 45.7019C74.796 46.2223 63.5636 51.1663 61.5686 61.488C59.9726 69.7454 62.7907 74.7058 63.7805 76.5369C64.6478 78.1416 66.0356 79.4686 68.4643 82.8687C70.8929 86.2688 72.0783 89.6053 72.3675 90.8486C72.859 92.9013 74.8041 97.3402 77.8753 97.8743C81.0672 98.4294 82.407 97.5522 83.3397 96.7467C83.9758 96.1974 85.9765 93.9017 87.1561 91.8894C88.3358 89.8771 89.3679 88.391 89.9751 87.5526C90.7494 86.4833 92.3875 84.7639 94.3987 82.8687C96.6539 80.7437 99.0681 77.9247 99.9933 76.5369C103.046 72.2348 103.217 66.5332 102.986 64.2202C102.637 60.7336 100.071 53.7077 93.965 49.128Z" fill="#FFC807"/>
<path d="M114.758 70.0431C114.573 69.1784 114.699 68.6821 114.785 68.542L114.055 67.9996C113.663 68.5832 113.246 68.8774 113.087 68.9516C112.938 69.017 112.576 69.1028 112.318 68.9232C112.061 68.7436 111.898 68.7027 111.848 68.7047C111.514 68.6304 111.208 68.884 111.097 69.02C110.862 69.2572 110.947 69.6346 111.018 69.7936C111.124 69.905 111.397 70.1302 111.638 70.1401C111.878 70.1499 112.124 70.2016 112.217 70.2262C112.424 70.3125 112.902 70.5863 113.159 70.9914C113.415 71.3965 113.833 71.6958 114.01 71.7948C114.708 72.2089 115.139 71.8813 115.267 71.6657C115.307 71.5393 115.335 71.2042 115.129 70.8749C114.923 70.5456 114.796 70.1831 114.758 70.0431Z" fill="#ECAFC6"/>
<path d="M127.417 13.6341C135.344 12.2036 141.52 16.4708 143.78 18.402C146.039 20.3333 153.324 30.7424 149.462 41.8032C146.373 50.6519 141.161 54.089 139.282 55.383C137.635 56.517 135.677 57.1212 131.663 59.2301C127.648 61.339 124.773 64.0041 123.838 65.073C122.28 66.831 118.129 70.1936 115.108 69.1872C111.968 68.1413 111.256 66.6192 110.866 65.3696C110.601 64.5174 110.076 61.283 110.126 58.7334C110.176 56.1837 110.07 54.2207 109.988 53.1009C109.883 51.6727 109.366 49.1808 108.613 46.3318C107.769 43.1373 107.162 39.1868 107.097 37.3729C106.732 31.6578 109.693 26.0112 111.161 23.87C113.374 20.6422 119.49 15.0646 127.417 13.6341Z" fill="#ECAFC6"/>
<path d="M119.175 103.165C119.93 102.614 120.161 102.146 120.182 101.981L121.19 102.037C121.13 102.746 121.291 103.247 121.379 103.409C121.464 103.557 121.72 103.861 122.067 103.889C122.414 103.918 122.584 103.993 122.626 104.027C122.968 104.188 123.06 104.585 123.064 104.763C123.105 105.101 122.773 105.339 122.601 105.415C122.432 105.433 122.041 105.43 121.824 105.28C121.608 105.13 121.359 105.01 121.261 104.969C121.022 104.9 120.417 104.8 119.916 104.947C119.415 105.095 118.846 105.054 118.624 105.015C117.733 104.881 117.582 104.345 117.618 104.093C117.671 103.969 117.876 103.69 118.281 103.569C118.687 103.448 119.046 103.249 119.175 103.165Z" fill="#CCEFFF"/>
<path d="M146.872 51.0535C140.955 44.7607 132.651 44.0403 129.358 44.0642C126.066 44.088 112.582 47.4165 108.352 58.5361C104.968 67.4318 107.145 73.5097 107.893 75.7436C108.548 77.7012 109.837 79.4504 111.884 83.7131C113.93 87.9759 114.603 91.926 114.684 93.3683C114.833 95.7524 116.139 101.079 119.459 102.272C122.91 103.511 124.574 102.793 125.77 102.077C126.586 101.588 129.263 99.4175 130.969 97.4033C132.675 95.3892 134.115 93.933 134.955 93.1163C136.026 92.0746 138.187 90.4762 140.797 88.7543C143.724 86.8235 146.964 84.15 148.265 82.7826C152.505 78.5797 153.804 72.2564 153.995 69.6328C154.284 65.6779 152.79 57.3462 146.872 51.0535Z" fill="#CCEFFF"/>
<path d="M30.8402 107.924C30.2111 107.39 30.0379 106.962 30.03 106.815L29.1383 106.799C29.1448 107.428 28.9703 107.859 28.8822 107.996C28.7979 108.121 28.5525 108.372 28.2447 108.374C27.9369 108.377 27.782 108.432 27.7431 108.459C27.4309 108.579 27.324 108.923 27.3096 109.079C27.2509 109.375 27.5286 109.606 27.6748 109.685C27.8224 109.711 28.1677 109.734 28.368 109.616C28.5683 109.498 28.7957 109.408 28.8844 109.378C29.1 109.333 29.6392 109.284 30.0714 109.447C30.5035 109.609 31.0077 109.61 31.2058 109.59C31.9999 109.53 32.1672 109.067 32.1517 108.843C32.1138 108.731 31.9507 108.472 31.6014 108.338C31.2522 108.205 30.9484 108.007 30.8402 107.924Z" fill="#CCEFFF"/>
<path d="M9.81894 60.2009C15.4426 55.04 22.8073 54.9448 25.7071 55.1797C28.6069 55.4146 40.273 59.2241 43.2785 69.2981C45.6828 77.3573 43.3689 82.5719 42.565 84.492C41.8605 86.1745 40.6106 87.6322 38.53 91.2557C36.4493 94.8793 35.5995 98.3166 35.4347 99.5823C35.1485 101.674 33.6516 106.283 30.6483 107.118C27.5269 107.986 26.1069 107.246 25.0992 106.536C24.4119 106.052 22.1941 103.966 20.8213 102.08C19.4485 100.194 18.2745 98.8173 17.5875 98.0429C16.7112 97.0554 14.9112 95.5063 12.7225 93.8193C10.2684 91.9276 7.58736 89.361 6.52952 88.0715C3.06606 84.0922 2.33273 78.4354 2.33426 76.1109C2.33658 72.6069 4.19523 65.3618 9.81894 60.2009Z" fill="#CCEFFF"/>
<path d="M44.6726 132.444C44.8181 131.748 44.7147 131.349 44.6448 131.236L45.2303 130.797C45.5479 131.265 45.8848 131.5 46.0135 131.559C46.1336 131.611 46.4253 131.679 46.6316 131.533C46.8379 131.387 46.9693 131.354 47.0091 131.355C47.2782 131.294 47.5253 131.497 47.6152 131.606C47.8053 131.796 47.7387 132.1 47.6816 132.228C47.5967 132.318 47.3784 132.501 47.1847 132.51C46.991 132.519 46.7935 132.561 46.719 132.581C46.5526 132.652 46.1684 132.874 45.9636 133.201C45.7589 133.528 45.4237 133.771 45.2817 133.851C44.722 134.187 44.3737 133.925 44.2695 133.752C44.237 133.651 44.2131 133.381 44.3775 133.115C44.542 132.849 44.6428 132.557 44.6726 132.444Z" fill="#FFC807"/>
<path d="M34.2541 87.093C27.8679 85.9739 22.9143 89.4337 21.1032 90.9973C19.2921 92.561 13.4715 100.969 16.6245 109.856C19.1469 116.966 23.3562 119.711 24.8741 120.745C26.2042 121.651 27.7825 122.129 31.0223 123.81C34.2621 125.491 36.5869 127.625 37.3443 128.481C38.605 129.89 41.9605 132.579 44.388 131.757C46.911 130.902 47.4778 129.674 47.786 128.667C47.9962 127.98 48.4057 125.375 48.355 123.323C48.3043 121.271 48.3817 119.69 48.4431 118.788C48.5214 117.638 48.9276 115.631 49.5221 113.334C50.1887 110.76 50.661 107.578 50.7057 106.117C50.9763 101.516 48.5703 96.983 47.3798 95.2655C45.5853 92.6765 40.6403 88.2121 34.2541 87.093Z" fill="#FFC807"/>
<path d="M64.6022 119.266C64.9739 118.477 64.9539 117.99 64.8974 117.846L65.7477 117.441C66.016 118.048 66.372 118.387 66.5165 118.48C66.6521 118.564 66.9975 118.698 67.2945 118.566C67.5916 118.434 67.7646 118.419 67.8139 118.428C68.1663 118.407 68.419 118.691 68.5014 118.836C68.6866 119.094 68.5205 119.437 68.4143 119.577C68.2838 119.667 67.9617 119.839 67.7177 119.813C67.4736 119.787 67.2157 119.8 67.1173 119.81C66.8905 119.861 66.3507 120.049 66.0059 120.394C65.6612 120.739 65.177 120.96 64.9779 121.027C64.188 121.316 63.8251 120.944 63.7424 120.722C63.7295 120.597 63.7733 120.277 64.051 119.996C64.3287 119.716 64.5342 119.392 64.6022 119.266Z" fill="#FFEFB5"/>
<path d="M63.9896 64.2027C56.3297 61.6943 49.2066 64.8166 46.5207 66.308C43.8349 67.7994 34.2795 76.5536 35.7858 87.552C36.9909 96.3508 41.4915 100.355 43.1025 101.851C44.5142 103.161 46.3521 104.017 49.9341 106.594C53.5161 109.17 55.8333 112.104 56.5442 113.249C57.732 115.135 61.1829 118.915 64.4352 118.407C67.8155 117.879 68.8577 116.548 69.5172 115.426C69.9669 114.661 71.1889 111.686 71.686 109.274C72.183 106.861 72.711 105.025 73.0338 103.981C73.4454 102.649 74.5002 100.374 75.8686 97.7963C77.4029 94.9063 78.8608 91.2684 79.3153 89.5668C80.9091 84.2289 79.1456 78.4695 78.1297 76.235C76.5983 72.8666 71.6494 66.711 63.9896 64.2027Z" fill="#FFEFB5"/>
<path d="M119.042 126.853C118.824 126.01 118.934 125.535 119.016 125.403L118.256 124.847C117.879 125.395 117.467 125.661 117.307 125.726C117.159 125.783 116.794 125.85 116.527 125.665C116.26 125.481 116.092 125.434 116.042 125.434C115.7 125.347 115.399 125.579 115.291 125.706C115.061 125.925 115.16 126.294 115.239 126.451C115.35 126.563 115.635 126.792 115.879 126.812C116.124 126.832 116.375 126.893 116.47 126.921C116.683 127.013 117.178 127.298 117.453 127.701C117.728 128.104 118.162 128.411 118.345 128.515C119.068 128.945 119.494 128.647 119.616 128.444C119.652 128.324 119.669 128.001 119.448 127.674C119.227 127.346 119.085 126.991 119.042 126.853Z" fill="#75C0E4"/>
<path d="M129.883 72.8648C137.876 71.8245 144.294 76.217 146.656 78.1818C149.018 80.1466 156.779 90.5249 153.253 101.051C150.433 109.473 145.266 112.57 143.406 113.74C141.775 114.765 139.81 115.265 135.811 117.13C131.812 118.995 128.99 121.448 128.079 122.441C126.561 124.073 122.467 127.144 119.366 126.041C116.143 124.894 115.367 123.392 114.927 122.167C114.628 121.331 113.98 118.182 113.94 115.719C113.901 113.256 113.723 111.354 113.6 110.267C113.443 108.882 112.83 106.451 111.965 103.664C110.995 100.539 110.239 96.6932 110.109 94.9367C109.535 89.3956 112.339 84.0646 113.752 82.0579C115.883 79.0331 121.891 73.9051 129.883 72.8648Z" fill="#75C0E4"/>
<path d="M98.6048 118.273C98.2332 117.485 98.2532 116.998 98.3097 116.854L97.4594 116.449C97.1911 117.056 96.8351 117.395 96.6906 117.488C96.555 117.572 96.2096 117.706 95.9126 117.574C95.6155 117.442 95.4425 117.427 95.3932 117.436C95.0408 117.415 94.7881 117.699 94.7057 117.844C94.5205 118.102 94.6866 118.445 94.7928 118.585C94.9233 118.674 95.2454 118.847 95.4894 118.821C95.7334 118.795 95.9913 118.808 96.0898 118.818C96.3166 118.869 96.8564 119.057 97.2012 119.402C97.5459 119.747 98.0301 119.968 98.2292 120.035C99.019 120.324 99.382 119.952 99.4647 119.73C99.4776 119.605 99.4338 119.284 99.1561 119.004C98.8784 118.723 98.6729 118.4 98.6048 118.273Z" fill="#ECAFC6"/>
<path d="M99.2175 63.2105C106.877 60.7021 114 63.8245 116.686 65.3158C119.372 66.8072 128.928 75.5614 127.421 86.5599C126.216 95.3586 121.716 99.3631 120.105 100.858C118.693 102.169 116.855 103.025 113.273 105.601C109.691 108.178 107.374 111.112 106.663 112.257C105.475 114.143 102.024 117.922 98.7718 117.415C95.3916 116.887 94.3493 115.555 93.6899 114.434C93.2402 113.668 92.0181 110.694 91.5211 108.282C91.0241 105.869 90.496 104.033 90.1733 102.989C89.7617 101.657 88.7068 99.3815 87.3385 96.8042C85.8042 93.9141 84.3462 90.2762 83.8918 88.5746C82.298 83.2368 84.0614 77.4774 85.0773 75.2428C86.6087 71.8745 91.5577 65.7189 99.2175 63.2105Z" fill="#ECAFC6"/>
<path d="M72.6402 136.245C73.0119 135.456 72.9918 134.97 72.9353 134.825L73.7856 134.42C74.0539 135.028 74.41 135.366 74.5545 135.46C74.69 135.543 75.0354 135.677 75.3325 135.545C75.6296 135.413 75.8025 135.399 75.8519 135.408C76.2042 135.387 76.457 135.67 76.5393 135.815C76.7245 136.073 76.5585 136.417 76.4523 136.556C76.3218 136.646 75.9997 136.818 75.7557 136.793C75.5116 136.767 75.2537 136.78 75.1553 136.789C74.9284 136.84 74.3886 137.029 74.0439 137.373C73.6992 137.718 73.2149 137.939 73.0159 138.007C72.226 138.295 71.8631 137.923 71.7803 137.701C71.7675 137.576 71.8113 137.256 72.089 136.975C72.3667 136.695 72.5722 136.371 72.6402 136.245Z" fill="#75C0E4"/>
<path d="M72.0274 81.1817C64.3676 78.6733 57.2445 81.7956 54.5586 83.287C51.8728 84.7784 42.3174 93.5326 43.8237 104.531C45.0288 113.33 49.5294 117.334 51.1404 118.83C52.5521 120.14 54.39 120.996 57.972 123.573C61.554 126.149 63.8712 129.083 64.5821 130.228C65.7699 132.115 69.2208 135.894 72.4731 135.386C75.8533 134.858 76.8956 133.527 77.5551 132.405C78.0048 131.64 79.2268 128.665 79.7238 126.253C80.2209 123.84 80.7489 122.004 81.0717 120.96C81.4833 119.628 82.5381 117.353 83.9065 114.775C85.4408 111.885 86.8987 108.247 87.3532 106.546C88.947 101.208 87.1835 95.4485 86.1676 93.214C84.6362 89.8456 79.6873 83.69 72.0274 81.1817Z" fill="#75C0E4"/>
<path d="M90.2376 119.215C89.7554 118.545 89.6902 118.089 89.7178 117.944L88.8562 117.714C88.7112 118.326 88.4381 118.703 88.3197 118.814C88.2078 118.916 87.9093 119.1 87.6099 119.028C87.3105 118.957 87.147 118.973 87.1026 118.99C86.7708 119.031 86.5844 119.339 86.5327 119.488C86.4048 119.76 86.6187 120.051 86.7416 120.163C86.8786 120.224 87.2083 120.329 87.431 120.263C87.6538 120.197 87.8962 120.164 87.9895 120.156C88.2095 120.165 88.7447 120.247 89.1251 120.508C89.5055 120.77 89.9946 120.892 90.1916 120.921C90.9769 121.053 91.2507 120.644 91.2894 120.423C91.2798 120.305 91.1838 120.014 90.8768 119.801C90.5698 119.587 90.3227 119.322 90.2376 119.215Z" fill="#CCEFFF"/>
<path d="M81.311 67.8375C88.0109 64.1806 95.1822 65.8595 97.9404 66.7849C100.699 67.7104 111.106 74.2139 111.6 84.715C111.996 93.1159 108.496 97.621 107.254 99.2913C106.165 100.755 104.601 101.869 101.71 104.886C98.8192 107.903 97.1676 111.035 96.7032 112.224C95.9225 114.185 93.3609 118.299 90.2449 118.387C87.0064 118.479 85.8062 117.419 84.9986 116.488C84.4479 115.853 82.797 113.294 81.9181 111.133C81.0392 108.973 80.2308 107.354 79.7501 106.437C79.1371 105.268 77.7625 103.331 76.0438 101.167C74.1167 98.741 72.1316 95.605 71.415 94.0988C69.0103 89.4034 69.659 83.7363 70.2195 81.4803C71.0645 78.0797 74.6111 71.4943 81.311 67.8375Z" fill="#CCEFFF"/>
</svg>
